<?xml version="1.0" encoding="utf-8"?>
<!-- Generator: Adobe Illustrator 17.1.0, SVG Export Plug-In . SVG Version: 6.00 Build 0)  -->
<!DOCTYPE svg PUBLIC "-//W3C//DTD SVG 1.1//EN" "http://www.w3.org/Graphics/SVG/1.1/DTD/svg11.dtd">
<svg version="1.1" id="Layer_1" xmlns="http://www.w3.org/2000/svg" xmlns:xlink="http://www.w3.org/1999/xlink" x="0px" y="0px"
	 viewBox="0 0 430 477" enable-background="new 0 0 430 477" xml:space="preserve">
<g>
	<path fill="#FFFFFF" d="M62.1,114.4c2.9,3.1,4.6,7.4,3.2,11.6c-0.8,1.5-1.9,2.8-3,4.1c1.1-2.4,2.9-4.7,2.5-7.5
		C65,119.6,63.2,117.1,62.1,114.4z"/>
	<path fill="#FFFFFF" d="M68.3,114.2c2.3,2.5,4.3,5.7,3.9,9.3c-0.1,2.5-1.7,4.6-3.4,6.3c1-2.4,2.9-4.6,2.5-7.4
		C71.4,119.4,69.5,116.9,68.3,114.2z"/>
	<path fill="#FFFFFF" d="M56,115.1c2,2.3,3.9,5.2,3.5,8.4c0.2,2.8-2,4.9-3.6,7c1-2.3,2.8-4.4,2.6-7C59,120.4,57.2,117.8,56,115.1z"
		/>
	<path fill="#FFFFFF" d="M191.2,169.1c2.1,0,4.2,0,6.3,0c0.1,1.9,0.1,3.7,0.1,5.6c1.9,0.1,3.8,0.2,5.6,0.3c0,2.1,0,4.1,0,6.2
		c-1.9,0.1-3.8,0.2-5.6,0.3c-0.1,1.9-0.1,3.7-0.2,5.6c-2,0-4,0.1-6,0c-0.8-1.8-0.5-3.7-0.7-5.6c-1.8,0-3.6-0.1-5.4-0.1
		c0-2.1,0-4.2,0-6.3c1.8-0.1,3.6-0.1,5.4-0.1C190.9,172.9,191.1,171,191.2,169.1z"/>
	<path fill="#FFFFFF" d="M237.4,171c2.3-2.5,7.1-0.8,7.4,2.6c0.7,3.1-3,6.3-5.9,4.8C235.8,177.5,235,173,237.4,171z"/>
	<path fill="#FFFFFF" d="M226.3,175.7c2.4-1.8,5.9,0.1,6.5,2.8c1.1,3.6-3.5,7.1-6.6,4.8C223.3,181.9,223.4,177.1,226.3,175.7z"/>
</g>
<g>
	<g>
		<path fill="#FFCB23" d="M226,2.3c10.3,0.2,20.6-0.9,31-0.4c51.4,0,102.7,0,154.1,0c4.5,0,9.2,1.9,11.7,5.8
			c3.1,4.6,3.2,10.4,3.3,15.8c0,13.3-0.1,26.6,0,39.9c2.9,1.1,2.3,4.1,2.5,6.6c-0.6-0.3-1.9-1-2.5-1.3c0.1,4.6-0.2,9.3,0.1,13.9
			c0,2.1,1.7,3.6,2.9,5.2c-0.1,0.6-0.4,1.8-0.5,2.4c-0.6,0.1-1.9,0.4-2.5,0.5c0,3.6-0.1,7.2-0.1,10.8c0,3.2,1.7,6,2.8,8.9
			c-4.6,4.7-3,11.5-2.6,17.4c0.5,0.1,1.6,0.3,2.1,0.4c0.2,1,0.4,2,0.6,3c-1.2,1.7-2.4,3.3-3.2,5.2c0,4,1,8,0.9,12.1
			c0,18.3,0,36.7,0,55c0.1,35.3-0.4,70.7,0.7,106c0.2,56,0.1,112,0.1,168h-40.5c9.3-11.6,5.9-30.5-6.8-38.1
			c-11.6-7.9-28.9-4.2-36.4,7.7c-6.4,9-5.4,21.6,0.9,30.4h-31.4c-2.9-6.1-7.1-11.9-13.4-14.8c-10.4-5.6-24-2.9-31.9,5.7
			c-2.4,2.6-3.8,6-5.5,9.1H141.1c-0.2-5.4,0-10.8-0.2-16.1c0-2.8-1.8-6.1-4.9-6.2c-8-0.5-16.1,0.1-24.1-0.1c-2-0.1-4.6-1.2-4.7-3.4
			c-0.6-8.4,0.3-16.8-0.3-25.2c-0.2-2.4-2.2-4.9-4.8-4.7c-8.7-0.1-17.5-0.1-26.2,0.1c-2.3-0.1-4.2,1.3-6.1,2.5
			c-0.3,9.1-1.4,18.2-0.6,27.3c0.4,2.4-2.5,3.3-4.3,3.4c-8,0.4-16-0.4-23.9,0.3c-3,0.3-5.4,3.2-5.2,6.2c-0.1,5.3,0,10.7-0.1,16h-35
			c-0.3-10.3,0.5-20.7,0.5-31c1.1-14.7-0.4-29.3-0.1-44c-0.3-9.3,0.6-18.6,0.7-27.9c0.5-24.7-0.1-49.3,0.2-74
			c2.1-24.6-0.5-49.4,1.5-74c0.2-12.7,0-25.4,0.1-38.1c-0.3-13,0.8-26,0.5-39c-0.3-5.8,0.9-11.9-1.5-17.4c0.3-0.4,1-1.2,1.3-1.7
			c0.2-6.3,0.7-12.7-0.9-18.9c1.5-7,1.6-14.2,0.1-21.2c2.5-6,1.7-12.7,1.8-19.1c-0.6-0.4-1.9-1.2-2.5-1.6c0.8-1.2,1.6-2.4,2.4-3.6
			c0.2-12.2,0.1-24.3,0.1-36.5c0.1-4.3-0.1-8.7,0.7-12.9C6.6,11.3,10.6,6.4,16,5.3c9.5-2.3,19.3-0.8,29-1.4
			c12.3-1.3,24.7-0.5,37-0.7c9,0.3,18-1.2,27-0.8C148,2.3,187,2.5,226,2.3z M110.5,29.3c-1.4-0.1-2.9-0.2-4.3-0.1
			c-16.4,1.4-32.8-0.4-49.2,1.3c-6.5,0.3-13.1-0.6-19.6,0.6c-4.9,0.8-9.2,5.3-8.9,10.4c-0.5,17.3-1,34.6-0.8,52
			c-0.1,15.4,0.5,30.8-0.7,46.1c-0.3,28.3,0.5,56.7-0.9,85c0,27.6,0,55.3,0,82.9c-0.4,9.3-1.5,18.7,0.1,28
			c1.4,5.7,6.1,10.6,11.9,11.8c8.2,1.7,16.6,2,24.8,3c58.8,6.1,117.9,8.3,176.9,7.5c9.3-1.2,18.7-0.1,28-1.1
			c38.1-1.7,76.2-4.6,114.1-9c4-0.6,8.6-0.3,12-3c4.5-3.5,6.3-9.5,6.1-15.1c-0.1-44.7,0.1-89.4-0.1-134c0.6-7.6-0.6-15.4,0.8-23
			c0.3-30.3,0-60.7,0.2-91c0-13.3-1.2-26.7-0.9-40c0-2.3,0.2-4.6-0.4-6.8c-1.6-3.8-5.8-5.7-9.6-6c-10.3-0.6-20.7-0.3-31-0.4
			c-36.4-0.1-72.7,0.1-109.1,0.1c-7-0.2-13.9,1.1-20.9,0.7C189.5,29,150,28.8,110.5,29.3z"/>
	</g>
</g>
<g>
	<g>
		<path d="M110.5,29.3C150,28.8,189.5,29,229.1,29c7,0.4,13.9-0.9,20.9-0.7c36.4,0.1,72.7-0.1,109.1-0.1c10.3,0.1,20.7-0.2,31,0.4
			c3.9,0.3,8,2.3,9.6,6c0.6,2.2,0.4,4.6,0.4,6.8c-0.3,13.3,1,26.7,0.9,40c-0.2,30.3,0,60.7-0.2,91c-1.4,7.6-0.2,15.3-0.8,23
			c0.3,44.7,0,89.3,0.1,134c0.2,5.5-1.6,11.6-6.1,15.1c-3.4,2.7-8,2.3-12,3c-37.9,4.4-76,7.4-114.1,9c-9.3,1-18.7-0.1-28,1.1
			c-59.1,0.8-118.2-1.4-176.9-7.5c-8.3-1-16.6-1.3-24.8-3c-5.8-1.2-10.5-6.1-11.9-11.8c-1.6-9.3-0.4-18.7-0.1-28
			c0-27.6,0-55.3,0-82.9c1.4-28.3,0.5-56.6,0.9-85c1.2-15.3,0.5-30.7,0.7-46.1c-0.1-17.3,0.3-34.6,0.8-52c-0.3-5.1,4-9.6,8.9-10.4
			c6.4-1.3,13-0.4,19.6-0.6c16.3-1.7,32.8,0.1,49.2-1.3C107.6,29.1,109,29.2,110.5,29.3z M92.4,71.4c0,71.2,0,142.4,0,213.6
			c82.3,0,164.5,0,246.7,0c0-71.2,0-142.4,0-213.6C256.9,71.4,174.6,71.4,92.4,71.4z M62.1,114.4c1.1,2.7,2.9,5.2,2.7,8.2
			c0.3,2.8-1.4,5.1-2.5,7.5c1.1-1.3,2.2-2.6,3-4.1C66.7,121.8,65,117.5,62.1,114.4z M68.3,114.2c1.2,2.7,3.1,5.2,3.1,8.2
			c0.4,2.8-1.6,5-2.5,7.4c1.6-1.8,3.3-3.8,3.4-6.3C72.6,119.9,70.6,116.8,68.3,114.2z M56,115.1c1.1,2.7,2.9,5.3,2.6,8.4
			c0.1,2.6-1.7,4.7-2.6,7c1.6-2,3.8-4.1,3.6-7C60,120.3,58.1,117.4,56,115.1z M45.1,117.8c-3.8,1.4-3.9,7.4-0.4,9.1
			c3,1.8,7.7-0.6,7.2-4.3C52.5,118.7,48.3,116.6,45.1,117.8z"/>
	</g>
	<path d="M69.8,424.2c1.8-1.2,3.7-2.6,6.1-2.5c8.7-0.2,17.5-0.2,26.2-0.1c2.6-0.2,4.6,2.3,4.8,4.7c0.6,8.4-0.3,16.8,0.3,25.2
		c0.1,2.3,2.7,3.4,4.7,3.4c8,0.3,16.1-0.4,24.1,0.1c3.1,0.1,4.9,3.4,4.9,6.2c0.2,5.4-0.1,10.8,0.2,16.1H35.6c0.1-5.3,0-10.7,0.1-16
		c-0.2-3,2.2-6,5.2-6.2c7.9-0.7,15.9,0.1,23.9-0.3c1.9-0.1,4.8-0.9,4.3-3.4C68.4,442.5,69.6,433.4,69.8,424.2z"/>
	<path d="M343.7,447.1c7.4-11.9,24.8-15.5,36.4-7.7c12.8,7.6,16.1,26.5,6.8,38.1h-42.3C338.3,468.7,337.3,456.1,343.7,447.1z"/>
	<path d="M267.9,468.4c7.9-8.6,21.5-11.3,31.9-5.7c6.3,2.9,10.5,8.7,13.4,14.8h-50.8C264,474.4,265.4,471,267.9,468.4z"/>
</g>
<g>
	<path fill="#AF0500" d="M45.1,117.8c3.2-1.2,7.4,0.9,6.8,4.7c0.5,3.8-4.2,6.1-7.2,4.3C41.2,125.1,41.4,119.1,45.1,117.8z"/>
</g>
<g>
	<path fill="#231F20" d="M206.6,105.3c4.7-5.5,10.7-10.8,18.3-11.2c11.3-1.6,22.3,5.8,26.1,16.4c5,0.2,10.3,1.2,13.9,4.9
		c7.1,6.7,5.8,19.7-2.6,24.7c-3.6,3-8.3,1.3-12.4,1c-5.5-12.1-18-20.7-31.3-20.5c-10.5-0.1-20.5,5.4-27,13.5c-4-1.3-8.2-2-12.4-2.1
		c-1-3.4-2.2-6.9-1.8-10.5c0.5-9.2,8.4-17.3,17.6-18C198.9,102.8,202.7,104.5,206.6,105.3z"/>
	<g>
		<path fill="#231F20" d="M212.1,125.5c14.6-3.7,30.3,5.8,34.9,19.9c5.7-0.4,11.6,0.9,15.9,4.8c7.4,6.3,8.7,18.4,2.9,26.1
			c-3.4,4.5-8.8,7.9-14.6,7.7c-23.6,0-47.2,0-70.9,0c-8.2,0.3-15.8-4.6-20-11.5c-5.5-9-4.1-21.4,3.3-28.9c6.4-6.8,16.8-9.1,25.6-6
			c-2.2,4.8-3.3,9.9-3.7,15.1c1.8-0.4,5.1,0.5,4.5-2.5C190.7,138.1,200.5,128.1,212.1,125.5z M182.1,156.1c-0.2,2.5-0.4,4.9-0.6,7.4
			c-2.4,0-4.7,0.1-7,0.1c-0.1,2.8-0.1,5.5,0,8.3c2.4,0.1,4.7,0.1,7.1,0.2c0.2,2.4-0.1,5,0.9,7.3c2.6,0.2,5.2,0.1,7.9,0.1
			c0.1-2.4,0.2-4.9,0.2-7.3c2.4-0.1,4.9-0.2,7.4-0.3c0-2.7,0-5.4,0-8.1c-2.5-0.1-4.9-0.2-7.4-0.3c-0.1-2.4-0.1-4.8-0.2-7.3
			C187.5,156.1,184.8,156.1,182.1,156.1z M242.5,158.7c-3.1,2.6-2.1,8.5,1.9,9.6c3.8,1.9,8.6-2.2,7.7-6.3
			C251.8,157.6,245.6,155.4,242.5,158.7z M228,164.8c-3.7,1.8-3.9,8.1-0.1,10c4,3,10-1.6,8.6-6.2C235.8,164.9,231.1,162.5,228,164.8
			z"/>
	</g>
</g>
<rect x="165.5" y="257.5" fill="none" width="103" height="29.7"/>
<text transform="matrix(1 0 0 1 166.0238 265.9845)" fill="#231F20" font-family="'VisitorTT1BRK'" font-size="17">Googulator</text>
<path fill="none" stroke="#231F20" stroke-width="2" stroke-miterlimit="10" d="M274.9,261.7c0,3.9-3.1,7-7,7H166.2
	c-3.9,0-7-3.1-7-7l0,0c0-3.9,3.1-7,7-7h101.7C271.7,254.7,274.9,257.8,274.9,261.7L274.9,261.7z"/>
</svg>
